<?xml version="1.0" encoding="UTF-8"?>
<svg xmlns="http://www.w3.org/2000/svg" xmlns:xlink="http://www.w3.org/1999/xlink" width="854" height="480" viewBox="0 0 854 480">
<defs>
<g>
<g id="glyph-0-0">
<path d="M 5.78125 -5.21875 C 5.78125 -4.859375 5.710938 -4.539062 5.570312 -4.261719 C 5.425781 -3.980469 5.230469 -3.75 4.980469 -3.570312 C 4.734375 -3.386719 4.460938 -3.253906 4.164062 -3.167969 C 3.867188 -3.085938 3.554688 -3.042969 3.222656 -3.042969 L 2.445312 -3.042969 L 2.445312 -0.941406 C 2.445312 -0.828125 2.464844 -0.726562 2.503906 -0.640625 C 2.539062 -0.554688 2.617188 -0.488281 2.734375 -0.445312 C 2.792969 -0.421875 2.894531 -0.398438 3.042969 -0.382812 C 3.191406 -0.359375 3.328125 -0.351562 3.453125 -0.347656 L 3.453125 0 L 0.476562 0 L 0.476562 -0.347656 C 0.554688 -0.351562 0.667969 -0.363281 0.816406 -0.382812 C 0.964844 -0.398438 1.070312 -0.417969 1.128906 -0.445312 C 1.226562 -0.488281 1.296875 -0.546875 1.339844 -0.628906 C 1.382812 -0.710938 1.40625 -0.816406 1.40625 -0.941406 L 1.40625 -5.941406 C 1.40625 -6.054688 1.390625 -6.160156 1.359375 -6.25 C 1.324219 -6.339844 1.25 -6.410156 1.128906 -6.453125 C 1.003906 -6.496094 0.882812 -6.527344 0.757812 -6.546875 C 0.636719 -6.5625 0.53125 -6.574219 0.445312 -6.582031 L 0.445312 -6.929688 L 3.609375 -6.929688 C 4.253906 -6.929688 4.777344 -6.773438 5.179688 -6.460938 C 5.582031 -6.152344 5.78125 -5.738281 5.78125 -5.21875 M 4.296875 -4.039062 C 4.40625 -4.195312 4.480469 -4.355469 4.515625 -4.523438 C 4.550781 -4.691406 4.570312 -4.84375 4.570312 -4.976562 C 4.570312 -5.160156 4.546875 -5.351562 4.503906 -5.542969 C 4.460938 -5.734375 4.382812 -5.902344 4.277344 -6.046875 C 4.164062 -6.199219 4.015625 -6.316406 3.828125 -6.402344 C 3.640625 -6.484375 3.410156 -6.527344 3.132812 -6.527344 L 2.445312 -6.527344 L 2.445312 -3.46875 L 2.945312 -3.46875 C 3.296875 -3.46875 3.582031 -3.519531 3.800781 -3.628906 C 4.019531 -3.738281 4.1875 -3.875 4.296875 -4.039062 Z "/>
</g>
<g id="glyph-0-1">
<path d="M 4.914062 -0.0859375 C 4.757812 -0.03125 4.625 0.0117188 4.507812 0.046875 C 4.394531 0.0820312 4.261719 0.0976562 4.117188 0.0976562 C 3.863281 0.0976562 3.660156 0.0390625 3.507812 -0.0820312 C 3.355469 -0.199219 3.261719 -0.371094 3.21875 -0.601562 L 3.1875 -0.601562 C 2.976562 -0.367188 2.75 -0.1875 2.507812 -0.0625 C 2.265625 0.0585938 1.972656 0.121094 1.632812 0.121094 C 1.269531 0.121094 0.972656 0.0117188 0.738281 -0.210938 C 0.507812 -0.429688 0.390625 -0.722656 0.390625 -1.078125 C 0.390625 -1.265625 0.417969 -1.429688 0.46875 -1.578125 C 0.519531 -1.722656 0.597656 -1.855469 0.703125 -1.972656 C 0.785156 -2.070312 0.890625 -2.15625 1.023438 -2.234375 C 1.160156 -2.308594 1.285156 -2.371094 1.402344 -2.417969 C 1.546875 -2.472656 1.84375 -2.574219 2.292969 -2.726562 C 2.738281 -2.875 3.042969 -2.992188 3.199219 -3.078125 L 3.199219 -3.558594 C 3.199219 -3.601562 3.1875 -3.683594 3.171875 -3.804688 C 3.152344 -3.925781 3.117188 -4.039062 3.054688 -4.144531 C 2.992188 -4.265625 2.898438 -4.371094 2.78125 -4.460938 C 2.660156 -4.550781 2.492188 -4.59375 2.273438 -4.59375 C 2.125 -4.59375 1.988281 -4.570312 1.859375 -4.519531 C 1.730469 -4.46875 1.640625 -4.414062 1.585938 -4.359375 C 1.585938 -4.296875 1.601562 -4.199219 1.632812 -4.070312 C 1.664062 -3.945312 1.679688 -3.828125 1.679688 -3.71875 C 1.679688 -3.605469 1.628906 -3.503906 1.527344 -3.40625 C 1.421875 -3.3125 1.28125 -3.265625 1.097656 -3.265625 C 0.9375 -3.265625 0.816406 -3.324219 0.738281 -3.441406 C 0.664062 -3.554688 0.625 -3.683594 0.625 -3.828125 C 0.625 -3.976562 0.679688 -4.121094 0.785156 -4.257812 C 0.890625 -4.394531 1.027344 -4.515625 1.195312 -4.625 C 1.34375 -4.714844 1.519531 -4.792969 1.726562 -4.855469 C 1.9375 -4.917969 2.140625 -4.949219 2.339844 -4.953125 C 2.613281 -4.949219 2.851562 -4.933594 3.054688 -4.894531 C 3.257812 -4.859375 3.441406 -4.777344 3.609375 -4.652344 C 3.773438 -4.53125 3.902344 -4.371094 3.988281 -4.164062 C 4.074219 -3.957031 4.117188 -3.691406 4.117188 -3.363281 C 4.117188 -2.898438 4.109375 -2.484375 4.101562 -2.125 C 4.089844 -1.765625 4.085938 -1.375 4.085938 -0.945312 C 4.085938 -0.820312 4.109375 -0.71875 4.152344 -0.644531 C 4.195312 -0.570312 4.265625 -0.507812 4.355469 -0.453125 C 4.40625 -0.425781 4.480469 -0.410156 4.585938 -0.40625 C 4.691406 -0.402344 4.800781 -0.398438 4.914062 -0.398438 L 4.914062 -0.0859375 M 3.207031 -2.664062 C 2.929688 -2.585938 2.6875 -2.503906 2.480469 -2.425781 C 2.273438 -2.347656 2.078125 -2.25 1.898438 -2.132812 C 1.738281 -2.023438 1.609375 -1.890625 1.515625 -1.738281 C 1.417969 -1.585938 1.371094 -1.40625 1.371094 -1.199219 C 1.371094 -0.925781 1.441406 -0.726562 1.585938 -0.601562 C 1.726562 -0.472656 1.90625 -0.410156 2.125 -0.410156 C 2.355469 -0.410156 2.558594 -0.464844 2.734375 -0.578125 C 2.910156 -0.691406 3.058594 -0.824219 3.179688 -0.976562 Z "/>
</g>
<g id="glyph-0-2">
<path d="M 3.53125 -2.359375 C 3.664062 -2.242188 3.765625 -2.105469 3.835938 -1.953125 C 3.910156 -1.800781 3.945312 -1.613281 3.945312 -1.390625 C 3.945312 -0.945312 3.777344 -0.582031 3.445312 -0.296875 C 3.109375 -0.015625 2.679688 0.125 2.148438 0.125 C 1.867188 0.125 1.609375 0.078125 1.375 -0.0234375 C 1.136719 -0.125 0.96875 -0.21875 0.867188 -0.304688 L 0.773438 0.015625 L 0.40625 0.015625 L 0.355469 -1.660156 L 0.695312 -1.660156 C 0.71875 -1.53125 0.773438 -1.382812 0.859375 -1.214844 C 0.945312 -1.042969 1.046875 -0.890625 1.167969 -0.753906 C 1.292969 -0.609375 1.445312 -0.488281 1.625 -0.390625 C 1.800781 -0.292969 2 -0.242188 2.222656 -0.242188 C 2.535156 -0.242188 2.773438 -0.316406 2.945312 -0.457031 C 3.113281 -0.601562 3.199219 -0.804688 3.199219 -1.070312 C 3.199219 -1.207031 3.171875 -1.324219 3.117188 -1.421875 C 3.0625 -1.523438 2.984375 -1.609375 2.882812 -1.683594 C 2.773438 -1.757812 2.640625 -1.828125 2.484375 -1.886719 C 2.328125 -1.949219 2.15625 -2.007812 1.960938 -2.066406 C 1.808594 -2.109375 1.640625 -2.171875 1.453125 -2.253906 C 1.265625 -2.332031 1.105469 -2.425781 0.972656 -2.535156 C 0.828125 -2.648438 0.710938 -2.789062 0.621094 -2.953125 C 0.527344 -3.121094 0.484375 -3.316406 0.484375 -3.539062 C 0.484375 -3.933594 0.628906 -4.265625 0.921875 -4.539062 C 1.214844 -4.8125 1.609375 -4.949219 2.101562 -4.953125 C 2.289062 -4.949219 2.480469 -4.925781 2.679688 -4.878906 C 2.875 -4.828125 3.035156 -4.769531 3.160156 -4.703125 L 3.273438 -4.957031 L 3.625 -4.957031 L 3.695312 -3.40625 L 3.359375 -3.40625 C 3.289062 -3.753906 3.144531 -4.035156 2.917969 -4.253906 C 2.691406 -4.472656 2.414062 -4.578125 2.089844 -4.578125 C 1.824219 -4.578125 1.613281 -4.511719 1.460938 -4.378906 C 1.308594 -4.242188 1.230469 -4.082031 1.230469 -3.890625 C 1.230469 -3.746094 1.253906 -3.625 1.304688 -3.523438 C 1.355469 -3.429688 1.433594 -3.34375 1.53125 -3.277344 C 1.632812 -3.210938 1.753906 -3.148438 1.902344 -3.09375 C 2.050781 -3.035156 2.234375 -2.972656 2.453125 -2.898438 C 2.664062 -2.832031 2.867188 -2.753906 3.058594 -2.660156 C 3.25 -2.570312 3.40625 -2.46875 3.53125 -2.359375 Z "/>
</g>
<g id="glyph-0-3">
</g>
<g id="glyph-0-4">
<path d="M 5.113281 0 L 0.539062 0 L 0.539062 -0.667969 C 0.625 -0.769531 0.746094 -0.882812 0.902344 -1.007812 C 1.058594 -1.132812 1.246094 -1.269531 1.460938 -1.414062 C 1.589844 -1.503906 1.746094 -1.597656 1.929688 -1.703125 C 2.109375 -1.804688 2.316406 -1.921875 2.546875 -2.042969 C 2.804688 -2.179688 3.003906 -2.300781 3.140625 -2.40625 C 3.28125 -2.507812 3.40625 -2.636719 3.519531 -2.789062 C 3.59375 -2.890625 3.65625 -3.015625 3.703125 -3.167969 C 3.746094 -3.320312 3.769531 -3.535156 3.769531 -3.816406 C 3.769531 -4.222656 3.660156 -4.519531 3.441406 -4.710938 C 3.222656 -4.898438 2.945312 -4.996094 2.601562 -4.996094 C 2.390625 -4.996094 2.191406 -4.953125 2 -4.871094 C 1.8125 -4.789062 1.671875 -4.671875 1.578125 -4.527344 C 1.601562 -4.421875 1.628906 -4.296875 1.664062 -4.15625 C 1.695312 -4.011719 1.714844 -3.871094 1.714844 -3.734375 C 1.714844 -3.613281 1.664062 -3.5 1.558594 -3.40625 C 1.457031 -3.308594 1.304688 -3.261719 1.101562 -3.261719 C 0.941406 -3.261719 0.816406 -3.316406 0.726562 -3.429688 C 0.640625 -3.542969 0.59375 -3.691406 0.59375 -3.882812 C 0.59375 -4.058594 0.644531 -4.234375 0.742188 -4.410156 C 0.839844 -4.589844 0.980469 -4.753906 1.164062 -4.902344 C 1.339844 -5.046875 1.5625 -5.167969 1.828125 -5.257812 C 2.089844 -5.351562 2.375 -5.394531 2.679688 -5.394531 C 3.347656 -5.394531 3.878906 -5.246094 4.269531 -4.949219 C 4.664062 -4.652344 4.859375 -4.253906 4.859375 -3.757812 C 4.859375 -3.519531 4.824219 -3.304688 4.753906 -3.109375 C 4.683594 -2.914062 4.570312 -2.742188 4.414062 -2.589844 C 4.242188 -2.425781 4.039062 -2.28125 3.808594 -2.164062 C 3.578125 -2.046875 3.222656 -1.878906 2.75 -1.667969 C 2.464844 -1.542969 2.203125 -1.410156 1.957031 -1.273438 C 1.714844 -1.132812 1.515625 -1 1.359375 -0.867188 L 5.113281 -0.867188 Z "/>
</g>
</g>
</defs>
<g fill="rgb(100%, 100%, 100%)" fill-opacity="1">
<use xlink:href="#glyph-0-0" x="30" y="29.169922"/>
<use xlink:href="#glyph-0-1" x="36" y="29.169922"/>
<use xlink:href="#glyph-0-2" x="41" y="29.169922"/>
<use xlink:href="#glyph-0-2" x="45" y="29.169922"/>
<use xlink:href="#glyph-0-3" x="49" y="29.169922"/>
<use xlink:href="#glyph-0-4" x="51" y="29.169922"/>
</g>
</svg>
